<?xml version="1.0" encoding="utf-8"?>
<!-- Generator: Adobe Illustrator 16.0.0, SVG Export Plug-In . SVG Version: 6.00 Build 0)  -->
<!DOCTYPE svg PUBLIC "-//W3C//DTD SVG 1.1//EN" "http://www.w3.org/Graphics/SVG/1.1/DTD/svg11.dtd">
<svg version="1.1" id="Layer_1" xmlns="http://www.w3.org/2000/svg" xmlns:xlink="http://www.w3.org/1999/xlink" x="0px" y="0px"
	 width="700px" height="490px" viewBox="0 0 700 490" enable-background="new 0 0 700 490" xml:space="preserve">
<g>
	<g>
		<g>
			<g>
				<path fill="#303E5C" d="M362.4,454.9c0.3,0,0.7,0.3,0.7,0.3l-5.7,11.8c-0.6,0-2.1,0.1-2.5,0.1c-0.3,0-0.7-0.3-0.7-0.3l-1.9-11.8
					c1.2,0,2.7-0.1,3.1-0.1c0.3,0,0.7,0.3,0.7,0.3l0.6,5.8c0.1,0.5,0.1,1.2,0,1.9c0.2-0.8,0.4-1.5,0.6-2.1l2.4-5.8
					C360.7,455,362,454.9,362.4,454.9L362.4,454.9z"/>
			</g>
			<g>
				<path fill="#303E5C" d="M368.3,460.7c0,1.3-0.7,2.1-2.6,2.5l-1.9,0.4c0.2,0.8,0.7,1.2,1.5,1.2c1.1,0,1.8-0.8,1.8-0.8
					s0.5,0.3,0.5,0.9c0,1.1-1.7,2.2-3.7,2.2c-2,0-3.3-1.2-3.3-3.3c0-2.4,1.7-5.6,4.8-5.6C367.2,458.2,368.3,459.2,368.3,460.7
					L368.3,460.7z M365,461.9c0.4-0.1,0.5-0.5,0.5-0.8c0-0.4-0.1-0.9-0.5-0.9c-0.8,0-1.1,1.2-1.2,2.1L365,461.9z"/>
			</g>
			<g>
				<path fill="#303E5C" d="M373.5,458.2c1.6,0,2.7,0.8,2.7,1.9c0,1.3-1.6,1.8-1.6,1.8s-0.5-1.4-1.6-1.4c-0.7,0-1.2,0.7-1.2,2.3
					c0,1.4,0.4,2.1,1.3,2.1c1,0,1.6-0.6,1.6-0.6s0.5,0.3,0.5,0.9c0,1-1.6,2.1-3.5,2.1c-2,0-3.3-1.2-3.3-3.3
					C368.5,461.5,370.3,458.2,373.5,458.2L373.5,458.2z"/>
			</g>
			<g>
				<path fill="#303E5C" d="M381,456.3c0.4,0,0.6,0.3,0.6,0.3l-0.3,1.8h2l-0.4,1.4c-0.1,0.4-0.4,0.7-0.8,0.7h-1l-0.6,3.5
					c-0.1,0.6,0,0.8,0.4,0.8c0.4,0,0.7-0.2,0.7-0.2s0.5,0.3,0.5,0.9c0,0.9-1.3,1.7-2.9,1.7c-1.7,0-2.4-1-2.1-2.8l0.6-3.9h-1.1
					l0.5-1.4c0.1-0.4,0.4-0.6,0.8-0.6h0.5l0.6-1.7C379.9,456.6,380.6,456.3,381,456.3L381,456.3z"/>
			</g>
			<g>
				<path fill="#303E5C" d="M390.5,460.7c0,1.3-0.7,2.1-2.6,2.5l-1.9,0.4c0.2,0.8,0.7,1.2,1.5,1.2c1.1,0,1.8-0.8,1.8-0.8
					s0.5,0.3,0.5,0.9c0,1.1-1.7,2.2-3.7,2.2c-2,0-3.3-1.2-3.3-3.3c0-2.4,1.7-5.6,4.8-5.6C389.5,458.2,390.5,459.2,390.5,460.7
					L390.5,460.7z M387.3,461.9c0.4-0.1,0.5-0.5,0.5-0.8c0-0.4-0.1-0.9-0.5-0.9c-0.8,0-1.1,1.2-1.2,2.1L387.3,461.9z"/>
			</g>
			<g>
				<path fill="#303E5C" d="M398.4,460.7c0,1.3-0.7,2.1-2.6,2.5l-1.9,0.4c0.1,0.8,0.7,1.2,1.5,1.2c1.1,0,1.8-0.8,1.8-0.8
					s0.5,0.3,0.5,0.9c0,1.1-1.7,2.2-3.7,2.2c-2,0-3.3-1.2-3.3-3.3c0-2.4,1.7-5.6,4.8-5.6C397.3,458.2,398.4,459.2,398.4,460.7
					L398.4,460.7z M395.1,461.9c0.4-0.1,0.5-0.5,0.5-0.8c0-0.4-0.1-0.9-0.5-0.9c-0.8,0-1.1,1.2-1.2,2.1L395.1,461.9z"/>
			</g>
			<g>
				<path fill="#303E5C" d="M404.8,463.9c0,0,0.7,0.6,0.7,1.6c0,1.3-1.1,1.7-2.1,1.7c-1.3,0-2.2-0.6-3.1-0.9
					c-0.3,0.3-0.5,0.6-0.8,0.9c0,0-1.4,0-1.4-1c0-1.1,2-3.1,4.1-5.3c-0.2,0-0.5-0.1-0.7-0.1c-1.2,0-1.7,0.6-1.7,0.6
					s-0.6-0.7-0.6-1.6c0.1-1.2,1.3-1.6,2.2-1.6c1,0,1.8,0.4,2.5,0.7l0.6-0.7c0,0,1.4,0,1.4,1c0,1.1-1.9,3-3.9,5.2
					c0.4,0.1,0.8,0.2,1.2,0.2C404.3,464.6,404.8,463.9,404.8,463.9L404.8,463.9z"/>
			</g>
			<g>
				<path fill="#303E5C" d="M414,466.4c-0.5,3-2.6,4.5-5.3,4.5c-1.7,0-3-0.9-3-1.9c0-0.7,0.6-1,0.6-1s0.6,0.5,1.7,0.5
					c1.1,0,2.5-0.4,2.8-2l0.2-1.2c-0.7,1-1.7,1.8-2.9,1.8c-1.4,0-2-1.1-1.6-3.3l0.4-2.4c0.2-1.5,0.3-2.6,0.3-2.6
					c1-0.2,2.2-0.6,2.7-0.6c0.3,0,0.7,0.3,0.7,0.3l-0.5,3l-0.4,2.8c0,0.3,0,0.4,0.2,0.4c1.1,0,1.8-3.1,1.8-3.1
					c0.2-1.5,0.3-2.6,0.3-2.6c1-0.2,2.2-0.6,2.7-0.6c0.3,0,0.7,0.3,0.7,0.3l-0.5,3L414,466.4z"/>
			</g>
		</g>
		<g>
			<path fill="#303E5C" d="M283.2,458.7h3c0.7,0,1.2,0.1,1.6,0.2c0.5,0.1,0.9,0.4,1.2,0.7c0.3,0.4,0.6,0.8,0.8,1.3
				c0.2,0.5,0.3,1.1,0.3,1.9c0,0.7-0.1,1.2-0.3,1.7c-0.2,0.6-0.5,1.1-0.9,1.4c-0.3,0.3-0.7,0.5-1.2,0.6c-0.4,0.1-0.9,0.2-1.5,0.2
				h-3.1V458.7z M284.9,460.1v5.3h1.2c0.5,0,0.8,0,1-0.1c0.3-0.1,0.5-0.2,0.7-0.3c0.2-0.2,0.3-0.4,0.4-0.8c0.1-0.4,0.2-0.8,0.2-1.5
				s-0.1-1.1-0.2-1.4c-0.1-0.3-0.3-0.6-0.5-0.8c-0.2-0.2-0.5-0.3-0.8-0.4c-0.2-0.1-0.7-0.1-1.4-0.1H284.9z"/>
			<path fill="#303E5C" d="M294.7,464.9l1.6,0.3c-0.2,0.6-0.5,1-1,1.3c-0.4,0.3-1,0.4-1.6,0.4c-1,0-1.8-0.3-2.3-1
				c-0.4-0.5-0.6-1.2-0.6-2c0-1,0.3-1.7,0.8-2.3s1.2-0.8,2-0.8c0.9,0,1.6,0.3,2.1,0.9c0.5,0.6,0.8,1.4,0.7,2.6h-4
				c0,0.5,0.1,0.8,0.4,1.1c0.2,0.3,0.5,0.4,0.9,0.4c0.2,0,0.5-0.1,0.6-0.2C294.5,465.4,294.7,465.2,294.7,464.9z M294.8,463.3
				c0-0.4-0.1-0.8-0.4-1s-0.5-0.3-0.8-0.3c-0.3,0-0.6,0.1-0.9,0.4s-0.3,0.6-0.3,1H294.8z"/>
			<path fill="#303E5C" d="M296.9,465.1l1.6-0.2c0.1,0.3,0.2,0.5,0.4,0.7c0.2,0.2,0.5,0.2,0.9,0.2c0.4,0,0.7-0.1,0.9-0.2
				c0.1-0.1,0.2-0.2,0.2-0.4c0-0.1,0-0.2-0.1-0.3c-0.1-0.1-0.3-0.1-0.5-0.2c-1.3-0.3-2.1-0.5-2.4-0.7c-0.5-0.3-0.7-0.7-0.7-1.3
				c0-0.5,0.2-0.9,0.6-1.3c0.4-0.3,1-0.5,1.9-0.5c0.8,0,1.4,0.1,1.8,0.4c0.4,0.3,0.7,0.6,0.8,1.1l-1.5,0.3c-0.1-0.2-0.2-0.4-0.4-0.5
				c-0.2-0.1-0.4-0.2-0.8-0.2c-0.4,0-0.7,0.1-0.9,0.2c-0.1,0.1-0.2,0.2-0.2,0.3c0,0.1,0.1,0.2,0.2,0.3c0.1,0.1,0.6,0.2,1.5,0.4
				c0.8,0.2,1.4,0.4,1.8,0.7c0.3,0.3,0.5,0.7,0.5,1.1c0,0.5-0.2,1-0.7,1.4c-0.5,0.4-1.1,0.6-2,0.6c-0.8,0-1.5-0.2-1.9-0.5
				C297.4,466,297.1,465.6,296.9,465.1z"/>
			<path fill="#303E5C" d="M303.6,460.1v-1.4h1.6v1.4H303.6z M303.6,466.7v-5.8h1.6v5.8H303.6z"/>
			<path fill="#303E5C" d="M306.4,467.1l1.8,0.2c0,0.2,0.1,0.3,0.2,0.4c0.2,0.1,0.4,0.2,0.7,0.2c0.4,0,0.7-0.1,0.9-0.2
				c0.1-0.1,0.2-0.2,0.3-0.4c0-0.1,0.1-0.4,0.1-0.7v-0.8c-0.5,0.6-1.1,0.9-1.8,0.9c-0.8,0-1.4-0.3-1.9-1c-0.4-0.5-0.5-1.2-0.5-1.9
				c0-1,0.2-1.7,0.7-2.2c0.5-0.5,1.1-0.8,1.8-0.8c0.7,0,1.3,0.3,1.8,0.9v-0.8h1.5v5.2c0,0.7-0.1,1.2-0.2,1.5
				c-0.1,0.3-0.3,0.6-0.5,0.8c-0.2,0.2-0.5,0.3-0.8,0.5s-0.8,0.2-1.3,0.2c-1,0-1.7-0.2-2.2-0.5c-0.4-0.3-0.6-0.8-0.6-1.3
				C306.4,467.2,306.4,467.2,306.4,467.1z M307.9,463.7c0,0.6,0.1,1.1,0.4,1.4c0.2,0.3,0.5,0.4,0.9,0.4c0.4,0,0.7-0.1,1-0.4
				c0.3-0.3,0.4-0.7,0.4-1.3c0-0.6-0.1-1-0.4-1.3c-0.3-0.3-0.6-0.4-1-0.4c-0.4,0-0.7,0.1-0.9,0.4C308,462.7,307.9,463.1,307.9,463.7
				z"/>
			<path fill="#303E5C" d="M318.8,466.7h-1.6v-3c0-0.6,0-1-0.1-1.2c-0.1-0.2-0.2-0.3-0.3-0.4c-0.1-0.1-0.3-0.2-0.5-0.2
				c-0.3,0-0.5,0.1-0.7,0.2c-0.2,0.1-0.4,0.3-0.4,0.6c-0.1,0.2-0.1,0.7-0.1,1.3v2.6h-1.6v-5.8h1.5v0.9c0.5-0.7,1.2-1,2-1
				c0.3,0,0.7,0.1,1,0.2c0.3,0.1,0.5,0.3,0.7,0.5c0.1,0.2,0.3,0.4,0.3,0.6c0.1,0.2,0.1,0.6,0.1,1V466.7z"/>
			<path fill="#303E5C" d="M323.6,464.9l1.6,0.3c-0.2,0.6-0.5,1-1,1.3c-0.4,0.3-1,0.4-1.6,0.4c-1,0-1.8-0.3-2.3-1
				c-0.4-0.5-0.6-1.2-0.6-2c0-1,0.3-1.7,0.8-2.3c0.5-0.5,1.2-0.8,2-0.8c0.9,0,1.6,0.3,2.1,0.9c0.5,0.6,0.8,1.4,0.7,2.6h-4
				c0,0.5,0.1,0.8,0.4,1.1c0.2,0.3,0.5,0.4,0.9,0.4c0.2,0,0.5-0.1,0.6-0.2S323.5,465.2,323.6,464.9z M323.7,463.3
				c0-0.4-0.1-0.8-0.4-1c-0.2-0.2-0.5-0.3-0.8-0.3c-0.3,0-0.6,0.1-0.9,0.4s-0.3,0.6-0.3,1H323.7z"/>
			<path fill="#303E5C" d="M331.8,466.7h-1.5v-0.9c-0.2,0.3-0.5,0.6-0.9,0.7c-0.3,0.2-0.7,0.2-1,0.2c-0.7,0-1.3-0.3-1.8-0.8
				c-0.5-0.5-0.7-1.3-0.7-2.2c0-1,0.2-1.7,0.7-2.2c0.5-0.5,1.1-0.8,1.8-0.8c0.7,0,1.2,0.3,1.7,0.8v-2.9h1.6V466.7z M327.6,463.7
				c0,0.6,0.1,1.1,0.3,1.3c0.3,0.4,0.6,0.6,1.1,0.6c0.4,0,0.7-0.2,0.9-0.4c0.3-0.3,0.4-0.7,0.4-1.3c0-0.7-0.1-1.1-0.4-1.4
				c-0.2-0.3-0.6-0.4-0.9-0.4c-0.4,0-0.7,0.1-0.9,0.4C327.7,462.7,327.6,463.1,327.6,463.7z"/>
			<path fill="#303E5C" d="M336,466.7v-8h1.6v2.9c0.5-0.5,1.1-0.8,1.7-0.8c0.7,0,1.3,0.3,1.8,0.8c0.5,0.5,0.7,1.2,0.7,2.2
				c0,1-0.2,1.8-0.7,2.3c-0.5,0.5-1.1,0.8-1.8,0.8c-0.3,0-0.7-0.1-1-0.2c-0.3-0.2-0.6-0.4-0.9-0.7v0.9H336z M337.6,463.7
				c0,0.6,0.1,1,0.3,1.3c0.3,0.4,0.6,0.6,1.1,0.6c0.3,0,0.6-0.1,0.9-0.4s0.4-0.7,0.4-1.4c0-0.7-0.1-1.1-0.4-1.4
				c-0.2-0.3-0.6-0.4-0.9-0.4c-0.4,0-0.7,0.1-0.9,0.4S337.6,463.1,337.6,463.7z"/>
			<path fill="#303E5C" d="M348,460.4c-0.4,0-0.7,0.2-0.9,0.5h-0.5l-1.4,4.1l-1.4-4.1h-1.7l2.3,5.8c-0.1,0.3-0.2,0.6-0.4,0.8
				c-0.2,0.2-0.4,0.3-0.8,0.3c-0.2,0-0.4,0-0.7-0.1l0.1,1.2c0.3,0.1,0.6,0.1,0.9,0.1c0.3,0,0.6,0,0.8-0.1c0.2-0.1,0.4-0.1,0.6-0.3
				s0.3-0.3,0.4-0.4c0.1-0.2,0.3-0.4,0.4-0.8l0.4-1l1.5-4c0.1,0,0.2,0.1,0.3,0.1C349.4,462.6,349.4,460.4,348,460.4z"/>
		</g>
	</g>
	<g>
		<path fill="#303E5C" d="M213.3,46.3c1.6-0.3,3.8-0.5,7-0.5c3.2,0,5.4,0.6,7,1.8c1.5,1.1,2.4,3,2.4,5.3c0,2.2-0.7,4.1-2.1,5.4
			c-1.8,1.7-4.4,2.4-7.4,2.4c-0.7,0-1.3,0-1.8-0.1v8.1h-5.1V46.3z M218.4,56.6c0.4,0.1,1,0.1,1.7,0.1c2.7,0,4.4-1.4,4.4-3.7
			c0-2.1-1.5-3.3-4-3.3c-1,0-1.8,0.1-2.1,0.2V56.6z"/>
		<path fill="#303E5C" d="M238.1,46v8.8h8.5V46h5.1v22.8h-5.1v-9.5h-8.5v9.5h-5.2V46H238.1z"/>
		<path fill="#303E5C" d="M260.8,68.8v-9.3L253.6,46h5.9l2.3,5.5c0.7,1.7,1.2,2.9,1.8,4.4h0.1c0.5-1.4,1-2.7,1.7-4.4l2.3-5.5h5.8
			L266,59.3v9.5H260.8z"/>
		<path fill="#303E5C" d="M275.1,63.5c1.4,0.7,3.5,1.4,5.7,1.4c2.4,0,3.6-1,3.6-2.5c0-1.4-1.1-2.2-3.8-3.2c-3.8-1.3-6.3-3.4-6.3-6.7
			c0-3.9,3.2-6.9,8.6-6.9c2.6,0,4.5,0.5,5.8,1.1l-1.1,4.2c-0.9-0.4-2.5-1.1-4.8-1.1c-2.2,0-3.3,1-3.3,2.2c0,1.5,1.3,2.1,4.2,3.2
			c4,1.5,5.9,3.6,5.9,6.8c0,3.8-2.9,7.1-9.2,7.1c-2.6,0-5.2-0.7-6.5-1.4L275.1,63.5z"/>
		<path fill="#303E5C" d="M298.4,46v22.8h-5.2V46H298.4z"/>
		<path fill="#303E5C" d="M319.6,68.1c-0.9,0.5-3.1,1-5.8,1c-7.9,0-11.9-4.9-11.9-11.4c0-7.8,5.5-12.1,12.4-12.1
			c2.7,0,4.7,0.5,5.6,1l-1,4.1c-1-0.4-2.5-0.8-4.3-0.8c-4.1,0-7.3,2.5-7.3,7.5c0,4.6,2.7,7.4,7.3,7.4c1.6,0,3.3-0.3,4.3-0.7
			L319.6,68.1z"/>
		<path fill="#303E5C" d="M328.6,62.9l-1.6,5.8h-5.3l7-22.8h6.8l7.1,22.8h-5.5l-1.8-5.8H328.6z M334.4,59.1l-1.4-4.8
			c-0.4-1.4-0.8-3-1.1-4.4h-0.1c-0.3,1.4-0.7,3.1-1,4.4l-1.4,4.8H334.4z"/>
		<path fill="#303E5C" d="M345.5,46h5.2v18.5h9.1v4.3h-14.2V46z"/>
		<path fill="#303E5C" d="M372.6,50.3h-6.1V46H384v4.3h-6.2v18.5h-5.2V50.3z"/>
		<path fill="#303E5C" d="M391.9,46v8.8h8.5V46h5.1v22.8h-5.1v-9.5h-8.5v9.5h-5.2V46H391.9z"/>
		<path fill="#303E5C" d="M423.6,59.1h-8.4v5.4h9.4v4.2H410V46h14.1v4.2h-8.9V55h8.4V59.1z"/>
		<path fill="#303E5C" d="M428.1,46.3c1.7-0.3,4.1-0.5,6.9-0.5c3.4,0,5.7,0.5,7.4,1.8c1.4,1.1,2.1,2.7,2.1,4.8c0,2.9-2.1,4.9-4,5.6
			v0.1c1.6,0.6,2.5,2.2,3,4.3c0.7,2.6,1.4,5.5,1.9,6.4H440c-0.4-0.6-0.9-2.5-1.6-5.3c-0.6-2.8-1.6-3.6-3.7-3.7h-1.6v9h-5.1V46.3z
			 M433.2,56.1h2c2.6,0,4.1-1.3,4.1-3.3c0-2.1-1.4-3.1-3.8-3.2c-1.2,0-2,0.1-2.3,0.2V56.1z"/>
		<path fill="#303E5C" d="M453.7,62.9l-1.6,5.8h-5.3l7-22.8h6.8l7.1,22.8H462l-1.8-5.8H453.7z M459.5,59.1l-1.4-4.8
			c-0.4-1.4-0.8-3-1.1-4.4h-0.1c-0.3,1.4-0.7,3.1-1,4.4l-1.4,4.8H459.5z"/>
		<path fill="#303E5C" d="M470.6,46.3c1.6-0.3,3.8-0.5,7-0.5c3.2,0,5.4,0.6,7,1.8c1.5,1.1,2.4,3,2.4,5.3c0,2.2-0.7,4.1-2.1,5.4
			c-1.8,1.7-4.4,2.4-7.4,2.4c-0.7,0-1.3,0-1.8-0.1v8.1h-5.1V46.3z M475.7,56.6c0.4,0.1,1,0.1,1.7,0.1c2.7,0,4.4-1.4,4.4-3.7
			c0-2.1-1.5-3.3-4-3.3c-1,0-1.8,0.1-2.1,0.2V56.6z"/>
		<path fill="#303E5C" d="M494.8,68.8v-9.3L487.6,46h5.9l2.3,5.5c0.7,1.7,1.2,2.9,1.8,4.4h0.1c0.5-1.4,1-2.7,1.7-4.4l2.3-5.5h5.8
			L500,59.3v9.5H494.8z"/>
	</g>
	<g>
		<g>
			<rect x="-0.2" y="100" fill="#EAEEEF" width="700" height="285.5"/>
			<g>
				<rect x="-0.2" y="138.2" fill="#FFFFFF" width="700" height="6.7"/>
				<rect x="-0.2" y="171.9" fill="#FFFFFF" width="700" height="6.7"/>
				<rect x="-0.2" y="205.6" fill="#FFFFFF" width="700" height="6.7"/>
				<rect x="-0.2" y="239.3" fill="#FFFFFF" width="700" height="6.7"/>
				<rect x="-0.2" y="273" fill="#FFFFFF" width="700" height="6.7"/>
				<rect x="-0.2" y="306.7" fill="#FFFFFF" width="700" height="6.7"/>
				<polygon fill="#FFFFFF" points="699.8,347.1 -0.2,347.1 0,340.4 700,340.4 				"/>
			</g>
		</g>
		<g>
			<g>
				<circle fill="#FAAF6C" cx="239" cy="168.3" r="28"/>
				<path fill="#303E5C" d="M239,197.8c-16.3,0-29.5-13.2-29.5-29.5s13.2-29.5,29.5-29.5s29.5,13.2,29.5,29.5S255.3,197.8,239,197.8
					z M239,141.8c-14.6,0-26.5,11.9-26.5,26.5s11.9,26.5,26.5,26.5s26.5-11.9,26.5-26.5S253.6,141.8,239,141.8z"/>
			</g>
			<g>
				<circle fill="#FFFFFF" cx="239" cy="168.3" r="22.7"/>
				<path fill="#303E5C" d="M239,192.5c-13.3,0-24.2-10.8-24.2-24.2c0-13.3,10.8-24.2,24.2-24.2s24.2,10.8,24.2,24.2
					C263.2,181.7,252.4,192.5,239,192.5z M239,147.2c-11.7,0-21.2,9.5-21.2,21.2s9.5,21.2,21.2,21.2s21.2-9.5,21.2-21.2
					S250.7,147.2,239,147.2z"/>
			</g>
			<g>
				<path fill="#303E5C" d="M239,155.2c-0.8,0-1.5-0.7-1.5-1.5v-4.1c0-0.8,0.7-1.5,1.5-1.5s1.5,0.7,1.5,1.5v4.1
					C240.5,154.5,239.8,155.2,239,155.2z"/>
			</g>
			<g>
				<path fill="#303E5C" d="M239,188c-0.8,0-1.5-0.7-1.5-1.5v-4.1c0-0.8,0.7-1.5,1.5-1.5s1.5,0.7,1.5,1.5v4.1
					C240.5,187.3,239.8,188,239,188z"/>
			</g>
			<g>
				<path fill="#303E5C" d="M224.7,169.5h-4.1c-0.8,0-1.5-0.7-1.5-1.5s0.7-1.5,1.5-1.5h4.1c0.8,0,1.5,0.7,1.5,1.5
					S225.5,169.5,224.7,169.5z"/>
			</g>
			<g>
				<path fill="#303E5C" d="M257.5,169.5h-4.1c-0.8,0-1.5-0.7-1.5-1.5s0.7-1.5,1.5-1.5h4.1c0.8,0,1.5,0.7,1.5,1.5
					S258.3,169.5,257.5,169.5z"/>
			</g>
			<g>
				<polygon fill="#FFFFFF" points="237.7,169.2 239,157.5 240.4,169.2 				"/>
				<path fill="#303E5C" d="M240.4,169.7C240.4,169.7,240.4,169.7,240.4,169.7h-2.7c-0.1,0-0.3-0.1-0.4-0.2s-0.1-0.2-0.1-0.4
					l1.3-11.8c0-0.3,0.2-0.4,0.5-0.4s0.5,0.2,0.5,0.4l1.3,11.6c0,0.1,0,0.1,0,0.2C240.9,169.5,240.7,169.7,240.4,169.7z
					 M238.2,168.7h1.6l-0.8-6.8L238.2,168.7z"/>
			</g>
			<g>
				<polygon fill="#FFFFFF" points="240.2,169.2 245.4,176 238.4,171 				"/>
				<path fill="#303E5C" d="M245.4,176.5c-0.1,0-0.2,0-0.3-0.1l-7-5c-0.1-0.1-0.2-0.2-0.2-0.4c0-0.1,0-0.3,0.1-0.4l1.7-1.8
					c0.1-0.1,0.2-0.2,0.4-0.2c0.1,0,0.3,0.1,0.4,0.2l5.2,6.7c0.1,0.1,0.2,0.2,0.2,0.4C246,176.3,245.7,176.5,245.4,176.5
					C245.4,176.5,245.4,176.5,245.4,176.5z M239.2,170.9l3.8,2.7l-2.8-3.7L239.2,170.9z"/>
			</g>
			<g>
				<circle fill="#FFFFFF" cx="239" cy="169.2" r="2"/>
				<path fill="#303E5C" d="M239,171.7c-1.4,0-2.5-1.1-2.5-2.5s1.1-2.5,2.5-2.5s2.5,1.1,2.5,2.5S240.4,171.7,239,171.7z M239,167.7
					c-0.8,0-1.5,0.7-1.5,1.5s0.7,1.5,1.5,1.5s1.5-0.7,1.5-1.5S239.9,167.7,239,167.7z"/>
			</g>
		</g>
		<path fill="#303E5C" d="M249.9,267.6h-6.5v-6.5c0-0.8-0.7-1.5-1.5-1.5s-1.5,0.7-1.5,1.5v6.5h-6.5c-0.8,0-1.5,0.7-1.5,1.5
			s0.7,1.5,1.5,1.5h6.5v6.5c0,0.8,0.7,1.5,1.5,1.5s1.5-0.7,1.5-1.5v-6.5h6.5c0.8,0,1.5-0.7,1.5-1.5S250.8,267.6,249.9,267.6z"/>
		<path fill="#303E5C" d="M591,146.5h-6.5V140c0-0.8-0.7-1.5-1.5-1.5s-1.5,0.7-1.5,1.5v6.5H575c-0.8,0-1.5,0.7-1.5,1.5
			s0.7,1.5,1.5,1.5h6.5v6.5c0,0.8,0.7,1.5,1.5,1.5s1.5-0.7,1.5-1.5v-6.5h6.5c0.8,0,1.5-0.7,1.5-1.5S591.8,146.5,591,146.5z"/>
		<path fill="#303E5C" d="M80.5,170.8h-4.7v-4.7c0-0.6-0.5-1.1-1.1-1.1c-0.6,0-1.1,0.5-1.1,1.1v4.7H69c-0.6,0-1.1,0.5-1.1,1.1
			s0.5,1.1,1.1,1.1h4.7v4.7c0,0.6,0.5,1.1,1.1,1.1c0.6,0,1.1-0.5,1.1-1.1V173h4.7c0.6,0,1.1-0.5,1.1-1.1S81.1,170.8,80.5,170.8z"/>
		<path fill="#303E5C" d="M328.2,118.6h-4.7V114c0-0.6-0.5-1.1-1.1-1.1c-0.6,0-1.1,0.5-1.1,1.1v4.7h-4.7c-0.6,0-1.1,0.5-1.1,1.1
			s0.5,1.1,1.1,1.1h4.7v4.7c0,0.6,0.5,1.1,1.1,1.1c0.6,0,1.1-0.5,1.1-1.1v-4.7h4.7c0.6,0,1.1-0.5,1.1-1.1S328.8,118.6,328.2,118.6z"
			/>
		<path fill="#303E5C" d="M505.7,216.6H501V212c0-0.6-0.5-1.1-1.1-1.1c-0.6,0-1.1,0.5-1.1,1.1v4.7h-4.7c-0.6,0-1.1,0.5-1.1,1.1
			s0.5,1.1,1.1,1.1h4.7v4.7c0,0.6,0.5,1.1,1.1,1.1c0.6,0,1.1-0.5,1.1-1.1v-4.7h4.7c0.6,0,1.1-0.5,1.1-1.1S506.3,216.6,505.7,216.6z"
			/>
		<path fill="#C1C5C6" d="M668.2,256.1h-1.5v-7.8l5.2-2.9c2.2-1.3,3-4.1,1.8-6.3c-1.3-2.2-4.1-3-6.3-1.8l-32.6,18.4
			c-0.2,0.1-0.4,0.3-0.6,0.4H488.7c-3.3,0-6,2.1-6,4.6s2.7,4.6,6,4.6h7.3V314h7.4v-30.8H652V314h7.4v-48.6h8.8c3.3,0,6-2.1,6-4.6
			S671.5,256.1,668.2,256.1z M652,278.5H503.5v-13.1H652V278.5z M652.8,256.1l12.4-7v7H652.8z"/>
		<path fill="#C1C5C6" d="M175,375.7v-4.1h2.3v-38.7v-7.3v-26.4v-7.3v-26v-7.3V242H170v16.4h-13.3V242h-11v10.1h-15.9v6.4h-13.4
			v-8.9h-7.7V242h-11v16.4H92V242h-7.3v16.4v7.3v26v7.3v26.4v7.3v38.7h2v4.2c-1.8,0.7-3.2,2.4-3.2,4.5c0,2.7,2.2,4.8,4.8,4.8
			c2.7,0,4.8-2.2,4.8-4.8c0-2.2-1.5-4-3.5-4.6v-4.1H92v-38.7h78v38.7h2v4.2c-1.8,0.7-3.2,2.4-3.2,4.5c0,2.7,2.2,4.8,4.8,4.8
			c2.7,0,4.8-2.2,4.8-4.8C178.5,378.1,177,376.3,175,375.7z M92,265.8h78v26h-5v-16.4h-11v16.4h-2.8v-16.4h-11v16.4H131v-16.4H97.7
			v16.4H92V265.8z M166.3,325.5v-16.1H133v16.1h-16.7v-22.1h-7.7v22.1h-3.3v-22.1h-7.7v22.1H92v-26.4h78v26.4H166.3z"/>
	</g>
	<g>
		<ellipse fill="#D2D7D8" cx="354.8" cy="387.8" rx="121.1" ry="11.2"/>
		<g>
			<g>
				<g>
					<g>
						<rect x="374.4" y="190.7" fill="#FFFFFF" width="22.7" height="20.3"/>
						<path fill="#303E5C" d="M397.1,212.1h-22.7c-0.6,0-1.1-0.5-1.1-1.1v-20.3c0-0.6,0.5-1.1,1.1-1.1h22.7c0.6,0,1.1,0.5,1.1,1.1
							V211C398.2,211.6,397.7,212.1,397.1,212.1z M375.5,209.9h20.4v-18h-20.4V209.9z"/>
					</g>
					<g>
						<ellipse fill="#FFFFFF" cx="384.6" cy="172.5" rx="25.8" ry="25.2"/>
						<path fill="#303E5C" d="M384.6,199.2c-15,0-27.3-12-27.3-26.7c0-14.7,12.2-26.7,27.3-26.7s27.3,12,27.3,26.7
							C411.8,187.2,399.6,199.2,384.6,199.2z M384.6,148.8c-13.4,0-24.3,10.6-24.3,23.7c0,13.1,10.9,23.7,24.3,23.7
							s24.3-10.6,24.3-23.7C408.8,159.5,397.9,148.8,384.6,148.8z"/>
					</g>
					<g>
						<g>
							<path fill="#303E5C" d="M374.7,170.9c0-0.1,0.1-0.2,0.1-0.3c0-0.6-0.2-1.1-0.6-1.5c-1.1-1-3.4-0.8-5.5-0.6
								c-0.6,0.1-1.5,0.1-1.8,0.1c-0.3-0.2-0.6-0.2-0.9,0c-0.3,0.3-0.4,0.7-0.1,1c0.4,0.6,1.3,0.5,3,0.3c0.3,0,0.7-0.1,1.1-0.1
								c-0.3,0.5-0.4,1.1-0.4,1.7c0,1.7,1.2,3.1,2.6,3.1c1.4,0,2.6-1.4,2.6-3.1C374.7,171.3,374.7,171.1,374.7,170.9z"/>
						</g>
						<g>
							<ellipse fill="#FFF1F1" cx="372.8" cy="171.9" rx="0.7" ry="1.1"/>
						</g>
					</g>
					<g>
						<g>
							<path fill="#303E5C" d="M403.6,168.6c-0.3-0.2-0.6-0.2-0.9,0c-0.3,0-1.2,0-1.8-0.1c-2-0.2-4.3-0.4-5.5,0.6
								c-0.4,0.4-0.6,0.9-0.6,1.5c0,0.1,0,0.2,0.1,0.3c0,0.2-0.1,0.4-0.1,0.7c0,1.7,1.2,3.1,2.6,3.1s2.6-1.4,2.6-3.1
								c0-0.6-0.2-1.2-0.4-1.7c0.4,0,0.8,0.1,1.1,0.1c1.7,0.2,2.5,0.2,3-0.3C403.9,169.3,403.9,168.9,403.6,168.6z"/>
						</g>
						<g>
							<ellipse fill="#FFF1F1" cx="396.7" cy="171.9" rx="0.7" ry="1.1"/>
						</g>
					</g>
					<g>
						<path fill="#303E5C" d="M384.4,185.6c-2.4,0-4.7-0.3-6.5-0.9c-2.8-0.9-3.3-2.3-3.3-3.3c0-0.4,0.3-0.7,0.7-0.7s0.7,0.3,0.7,0.7
							c0,1.5,3.7,2.6,8.3,2.6s8.3-1.2,8.3-2.6c0-0.4,0.3-0.7,0.7-0.7c0.4,0,0.7,0.3,0.7,0.7C394.2,184.5,389,185.6,384.4,185.6z"/>
					</g>
					<g>
						<circle fill="#E8BEB2" cx="368.2" cy="181.8" r="2.5"/>
					</g>
					<g>
						<circle fill="#E8BEB2" cx="400" cy="181.8" r="2.5"/>
					</g>
					<g>
						<path fill="#A79895" d="M410.2,149.5c-6.3-7.2-19.8-11.3-33.9-6.5c-30,0.2-17.5,33-17.5,33c-3.4-13,8.1-18.5,10-20.1
							c0,0,43.8,15,37.8,3.6c2.7,3.2,4.7,9.8,3.7,13.5C410.3,173,417.4,157.7,410.2,149.5z"/>
						<path fill="#303E5C" d="M358.8,177.5c-0.6,0-1.2-0.4-1.4-1c-0.3-0.7-6.3-16.9,0.7-27.1c3.5-5.1,9.6-7.8,18-7.9
							c4.1-1.4,8.4-2.1,12.6-2.1c9.2,0,17.7,3.4,22.7,9.1c7.8,8.8,0.6,24.5,0.3,25.2c-0.3,0.7-1.1,1-1.9,0.8c-0.7-0.3-1.1-1-0.9-1.8
							c0.6-2.1-0.1-5.7-1.4-8.7c-1.1,0.9-2.8,1.3-5.3,1.3c-9.6,0-29-6.3-33.1-7.7c-0.2,0.1-0.3,0.2-0.5,0.3
							c-3.3,2.2-11.1,7.3-8.3,17.7c0.2,0.8-0.2,1.6-1,1.8C359.1,177.5,358.9,177.5,358.8,177.5z M406.6,158c0.4,0,0.9,0.2,1.2,0.5
							c1.4,1.7,2.7,4.2,3.4,6.9c1.1-4.8,1.4-10.9-2.1-14.9c-4.4-5-12.1-8-20.5-8c-4,0-8,0.7-11.9,2c-0.2,0.1-0.3,0.1-0.5,0.1
							c-7.5,0.1-12.9,2.3-15.8,6.6c-2.8,4.1-3.1,9.4-2.7,14.1c2.2-5.2,6.8-8.2,9.1-9.7c0.4-0.3,0.7-0.5,1-0.7
							c0.4-0.3,0.9-0.4,1.4-0.2c0.2,0.1,22.9,7.8,32.9,7.8c3,0,3.5-0.7,3.5-0.7c0.1-0.1,0.1-0.5-0.4-1.4c-0.4-0.7-0.1-1.5,0.5-1.9
							C406,158.1,406.3,158,406.6,158z"/>
					</g>
				</g>
				<g>
					<rect x="372.8" y="202.1" fill="#93BCD0" width="26.5" height="22.1"/>
					<path fill="#303E5C" d="M399.3,225.6h-26.5c-0.8,0-1.5-0.7-1.5-1.5v-22.1c0-0.8,0.7-1.5,1.5-1.5h26.5c0.8,0,1.5,0.7,1.5,1.5
						v22.1C400.8,225,400.1,225.6,399.3,225.6z M374.3,222.6h23.5v-19.1h-23.5V222.6z"/>
				</g>
				<g>
					<g>
						<g>
							<path fill="#93BCD0" d="M368.7,378.1c0,0,3.7,4.1,7.6,3.6c2.5-0.3,2.4-3.2,2.4-3.2l5-92.8l-23.2-1L368.7,378.1z"/>
							<path fill="#303E5C" d="M375.7,383.3L375.7,383.3c-4.3,0-8-4-8.1-4.2c-0.2-0.2-0.4-0.6-0.4-0.9l-8.1-93.4
								c0-0.4,0.1-0.9,0.4-1.2c0.3-0.3,0.7-0.5,1.1-0.5l23.2,1c0.4,0,0.8,0.2,1,0.5c0.3,0.3,0.4,0.7,0.4,1.1l-5,92.8
								c0,1.5-0.7,4.4-3.7,4.7C376.2,383.2,376,383.3,375.7,383.3z M370.1,377.4c1.1,1,3.4,2.8,5.6,2.8c0,0,0,0,0,0
								c0.1,0,0.3,0,0.4,0c1-0.1,1-1.4,1-1.7c0,0,0-0.1,0-0.1l5-91.3l-19.9-0.8L370.1,377.4z"/>
						</g>
						<g>
							<path fill="#93BCD0" d="M373.2,377.7c-4.1-0.1-7.2,3.9-7,8.8l14.8,0.2C380.8,381.8,377.3,377.7,373.2,377.7z"/>
							<path fill="#303E5C" d="M381,388.2C381,388.2,381,388.2,381,388.2l-14.9-0.2c-0.8,0-1.4-0.6-1.5-1.4
								c-0.2-3.1,0.8-5.9,2.7-7.9c1.5-1.6,3.5-2.5,5.6-2.5c0,0,0.1,0,0.1,0c4.9,0.1,9.1,4.8,9.3,10.5c0,0.4-0.1,0.8-0.4,1.1
								C381.8,388,381.4,388.2,381,388.2z M367.7,385l11.6,0.2c-0.8-3.4-3.3-6-6.2-6c0,0,0,0,0,0c-1.4,0-2.6,0.5-3.6,1.6
								C368.6,381.8,367.9,383.3,367.7,385z"/>
						</g>
					</g>
					<g>
						<g>
							<path fill="#93BCD0" d="M392.5,378.1c0,0,3.7,4.1,7.6,3.6c2.5-0.3,2.4-3.2,2.4-3.2l5-92.8l-23.2-1L392.5,378.1z"/>
							<path fill="#303E5C" d="M399.5,383.3L399.5,383.3c-4.3,0-8-4-8.1-4.2c-0.2-0.2-0.4-0.6-0.4-0.9l-8.1-93.4
								c0-0.4,0.1-0.9,0.4-1.2c0.3-0.3,0.7-0.5,1.1-0.5l23.2,1c0.4,0,0.8,0.2,1,0.5c0.3,0.3,0.4,0.7,0.4,1.1l-5,92.8
								c0,1.5-0.7,4.4-3.7,4.7C400,383.2,399.8,383.3,399.5,383.3z M393.9,377.4c1.1,1,3.4,2.8,5.6,2.8c0,0,0,0,0,0
								c0.1,0,0.3,0,0.4,0c1-0.1,1-1.4,1-1.7c0,0,0-0.1,0-0.1l5-91.3l-19.9-0.8L393.9,377.4z"/>
						</g>
						<g>
							<path fill="#93BCD0" d="M397,377.7c-4.1-0.1-7.2,3.9-7,8.8l14.8,0.2C404.6,381.8,401.1,377.7,397,377.7z"/>
							<path fill="#303E5C" d="M404.9,388.2C404.9,388.2,404.8,388.2,404.9,388.2L390,388c-0.8,0-1.4-0.6-1.5-1.4
								c-0.2-3.1,0.8-5.9,2.7-7.9c1.5-1.6,3.5-2.5,5.6-2.5c0,0,0.1,0,0.1,0c4.9,0.1,9.1,4.8,9.3,10.5c0,0.4-0.1,0.8-0.4,1.1
								C405.7,388,405.3,388.2,404.9,388.2z M391.6,385l11.6,0.2c-0.8-3.4-3.3-6-6.2-6c0,0,0,0,0,0c-1.4,0-2.6,0.5-3.6,1.6
								C392.4,381.8,391.7,383.3,391.6,385z"/>
						</g>
					</g>
				</g>
				<g>
					<path fill="#FFFFFF" d="M372.8,201.1c2.3-1.6,3.6,15.7,12.9,16c11.8,0.4,11.8-16,11.8-16c21.3,8.2,13.6,98,13.6,98l-53.5,0.2
						C357.6,299.3,354.5,213.8,372.8,201.1z"/>
					<path fill="#303E5C" d="M357.6,300.8c-0.8,0-1.5-0.6-1.5-1.4c-0.1-3.5-2.8-86.5,15.8-99.5c0.3-0.2,0.7-0.4,1.1-0.4
						c1.7,0,2.4,1.9,3.6,5c1.6,4.4,4.1,10.9,9.1,11.1c4.2,0.1,7.2-2.2,8.9-7c1.3-3.7,1.3-7.5,1.3-7.5c0-0.5,0.2-1,0.7-1.2
						c0.4-0.3,0.9-0.3,1.4-0.2c9.4,3.6,14.7,21.6,15.7,53.4c0.7,23.3-1.2,45.9-1.2,46.1c-0.1,0.8-0.7,1.4-1.5,1.4L357.6,300.8
						C357.6,300.8,357.6,300.8,357.6,300.8z M372.8,202.9c-6.6,5.7-11.1,23.7-13,52.1c-1.3,19.2-0.9,37.6-0.8,42.7l50.6-0.2
						c2-24.6,3.4-83.8-10.8-94.1c-0.2,1.6-0.6,3.8-1.3,6.1c-2.1,5.9-6,9-11.3,9c-0.2,0-0.3,0-0.5,0c-7-0.2-10-8.3-11.8-13.1
						C373.5,204.6,373.1,203.6,372.8,202.9z"/>
				</g>
				<g>
					<path fill="#FFFFFF" d="M411.2,234.9c2,1.5-5.4,18.7-7,21.7c-0.5,0.9,8.1,0.7,8.1,0.7s6.5-10.7,9-14.6
						c4.2-6.6-5-40.5-20.3-40.5L411.2,234.9z"/>
					<path fill="#303E5C" d="M410.8,258.8c-6.8,0-7.5-0.5-8-1.3c-0.3-0.5-0.3-1.1,0-1.6c3.9-7.3,7.3-18.4,7.2-20
						c-0.1-0.1-0.2-0.3-0.3-0.5l-10.3-32.7c-0.1-0.5-0.1-1,0.2-1.3c0.3-0.4,0.7-0.6,1.2-0.6c5.9,0,11.5,4.4,16,12.6
						c5.9,10.7,8.6,25.3,5.5,30.1c-2.5,3.9-8.9,14.5-8.9,14.6c-0.3,0.4-0.7,0.7-1.3,0.7C412.3,258.8,411.7,258.8,410.8,258.8z
						 M406.3,255.7c0.9,0.1,2.4,0.1,4.5,0.1c0.2,0,0.4,0,0.6,0c1.5-2.5,6.4-10.6,8.5-14c2-3.1,0.2-16.4-5.6-27.1
						c-2-3.7-6-9.5-11.3-10.8l9.4,30.1c0.9,1,1,3.3-2.1,11.6C409.1,249.4,407.4,253.3,406.3,255.7z"/>
				</g>
			</g>
			<g>
				<path fill="#FFFFFF" d="M412,385c0,0,13.7,2.8,14.3-0.4c0.3-1.3-9.2-3.1-12.6-7.8c-0.4-0.6-10.2,1-10-0.7
					c0.1-1.2-1.6,6.4-0.2,7.8C405,385.2,412,385,412,385z"/>
				<path fill="#303E5C" d="M421.8,387.7c-3.9,0-8.9-0.9-9.9-1.1c-0.2,0-0.4,0-0.7,0c-7,0-8.2-1.1-8.6-1.5c-2.2-2.1-0.2-9.5-0.2-9.5
					c0.2-0.6,0.8-1,1.4-1c0.4,0,0.8,0.2,1.1,0.5c0.1,0.1,0.2,0.3,0.3,0.4c0.3,0,0.8,0.1,1.6,0.1c1.1,0,2.4-0.1,3.6-0.2
					c1-0.1,1.9-0.1,2.5-0.1c0.6,0,1.6,0,2.1,0.8c1.8,2.5,5.9,4.2,8.7,5.4c2.8,1.2,4.5,1.9,4.1,3.6
					C427.3,387.7,423.3,387.7,421.8,387.7z M412,383.5c0.1,0,0.2,0,0.3,0c0.1,0,5.5,1.1,9.5,1.1c0.8,0,1.3,0,1.8-0.1
					c-0.3-0.1-0.7-0.3-1-0.4c-3.1-1.3-7.2-3-9.6-5.9c-0.6,0-1.5,0.1-2.4,0.1c-1.2,0.1-2.6,0.2-3.7,0.2c-0.8,0-1.4,0-1.9-0.1
					c-0.2,1.7-0.4,3.8-0.1,4.5c0.5,0.3,2.6,0.7,6.5,0.7C411.7,383.5,412,383.5,412,383.5C412,383.5,412,383.5,412,383.5z"/>
			</g>
			<g>
				<path fill="#E79037" d="M406,376.8c1.5,0,7.8,0.3,7.8,0.3s3.7-66.1-11.1-69.9c-12-3.1-64.2,11.9-64.2,11.9l7.8,20.2l51.1-17.2
					C397.5,322,404.9,376.8,406,376.8z"/>
				<path fill="#303E5C" d="M413.8,378.5C413.8,378.5,413.7,378.5,413.8,378.5c-0.1,0-6.3-0.3-7.8-0.3c-1.7,0-1.9,0-6.1-28.7
					c-1.5-10.7-3-21.4-3.6-25.6l-49.4,16.6c-0.8,0.3-1.6-0.1-1.9-0.9l-7.8-20.2c-0.2-0.4-0.1-0.8,0.1-1.2s0.5-0.7,0.9-0.8
					c1.8-0.5,43.3-12.4,60.3-12.4c1.9,0,3.5,0.2,4.7,0.5c15.5,4,12.6,64.6,12.2,71.5C415.2,377.9,414.6,378.5,413.8,378.5z
					 M407,375.3c1.5,0,3.8,0.1,5.3,0.2c1.2-25.2-0.4-64.4-10-66.9c-1-0.2-2.3-0.4-4-0.4c-14.7,0-50,9.6-57.8,11.8l6.7,17.3
					l49.8-16.7c0.4-0.1,0.9-0.1,1.3,0.1c0.4,0.2,0.6,0.6,0.7,1.1C401.5,340.4,405.7,369.9,407,375.3z"/>
			</g>
			<g>
				<path fill="#CA7EA1" d="M343.1,246.5h15.8c0,0,19,8.2,11.7,73.2c-0.2,1.6-44,5.9-44-3.2C326.5,304.6,343.1,246.5,343.1,246.5z"
					/>
				<path fill="#303E5C" d="M346.8,323.6c-14.6,0-21.8-2.3-21.8-7.1c0-11.9,15.9-68,16.6-70.4c0.2-0.6,0.8-1.1,1.4-1.1h15.8
					c0.2,0,0.4,0,0.6,0.1c0.8,0.4,19.9,9.4,12.6,74.7c-0.1,1.1-0.2,1.9-8.9,2.8C357.9,323.3,352,323.6,346.8,323.6z M344.2,248
					c-2.3,8-16.1,57.8-16.1,68.5c0,1.5,4,4.1,18.8,4.1c10.3,0,19.8-1.2,22.3-1.9c6.3-58-8.6-69.4-10.7-70.7H344.2z"/>
			</g>
			<g>
				<path fill="#FFFFFF" d="M348.2,261.6c7.9,4.7,26.7-2.6,36.4-2.3c18.8,0.5,34.6-3.3,34.6-3.3l0.2-0.3c-0.2,0.9,3.5,2.7,4.7,2.1
					c2.1-1,4.4-1.6,7.4-4.6c3.1-3-7-3.2-7-3.2s-18.6,1.4-38.6,1.8c-16.8,0.3-31.9,0.8-37.1,3.6C345.3,257.2,345.9,260.2,348.2,261.6
					z"/>
				<path fill="#303E5C" d="M355.6,264.7C355.6,264.7,355.6,264.7,355.6,264.7c-3.5,0-6.2-0.6-8.2-1.8c-1.7-1-2.6-2.6-2.6-4.3
					c0-1.1,0.5-3.1,3.3-4.6c5.4-2.9,20.3-3.4,37.7-3.8c19.7-0.4,38.3-1.7,38.5-1.8c0,0,0.1,0,0.1,0c3.6,0,8,0.6,8.9,2.8
					c0.2,0.6,0.4,1.7-0.9,3c-2.7,2.7-4.9,3.6-6.9,4.5c-0.3,0.1-0.6,0.3-0.9,0.4c-0.4,0.2-0.8,0.2-1.2,0.2c-1.5,0-3.5-0.8-4.6-1.8
					c-3.2,0.7-17.7,3.7-34.3,3.2c-3.5-0.1-8.2,0.8-13.2,1.8C366,263.6,360.4,264.7,355.6,264.7z M424.6,251.5
					c-1.2,0.1-19.4,1.4-38.6,1.8c-16.4,0.3-31.5,0.8-36.4,3.4c-1.1,0.6-1.7,1.3-1.7,2c0,0.6,0.4,1.2,1.1,1.7
					c1.5,0.9,3.7,1.4,6.6,1.4c0,0,0,0,0,0c4.5,0,9.9-1,15.2-2.1c5.2-1,10.1-2,13.9-1.9c16.5,0.5,30.7-2.5,33.7-3.1
					c0.4-0.5,1.1-0.6,1.7-0.4c0.5,0.2,0.8,0.6,0.9,1.1c0.5,0.4,1.9,1,2.7,1c0.3-0.1,0.7-0.3,1-0.4c1.7-0.7,3.5-1.5,5.8-3.7
					C429.3,251.9,426.8,251.5,424.6,251.5z"/>
			</g>
			<g>
				<path fill="#CA7EA1" d="M342.6,258.5c-1.9-3.6-1.8-5.3,0.5-6.7c2.2-1.3,20.9-0.5,20.9-0.5l-2.2,17.8
					C361.8,269.1,343.1,259.5,342.6,258.5z"/>
				<path fill="#303E5C" d="M361.8,270.6c-0.2,0-0.5-0.1-0.7-0.2c-19.1-9.8-19.6-10.7-19.9-11.2c-1.6-3-2.7-6.4,1.1-8.7
					c0.5-0.3,1.6-1,10.5-1c5.5,0,11.2,0.3,11.3,0.3c0.4,0,0.8,0.2,1.1,0.5s0.4,0.7,0.3,1.2l-2.2,17.8c-0.1,0.5-0.4,0.9-0.8,1.1
					C362.3,270.5,362.1,270.6,361.8,270.6z M343.8,257.6c1.4,1,10,5.6,16.8,9.2l1.8-14.1c-2.1-0.1-5.9-0.2-9.5-0.2
					c-7.4,0-8.8,0.5-9,0.6C342.9,253.6,342.1,254.2,343.8,257.6z"/>
			</g>
			<g>
				<path fill="#FFFFFF" d="M372.7,214.4c5,12.1-0.6,25.9-12.4,30.8c-11.8,4.9-13.6-5.1-18.6-17.3c-5-12.1-11.3-21.8,0.6-26.6
					C354,196.4,367.7,202.3,372.7,214.4z"/>
				<path fill="#303E5C" d="M354.8,247.9c-7,0-9.7-6.9-12.8-14.8c-0.6-1.5-1.2-3-1.8-4.6c-0.6-1.6-1.3-3.1-2-4.6
					c-3-6.9-5.7-12.9-3.7-17.9c1.1-2.7,3.4-4.7,7-6.2c2.9-1.2,6-1.8,9.2-1.8c10.2,0,19.3,6.2,23.2,15.8c5.3,12.9-0.7,27.5-13.2,32.7
					C358.6,247.5,356.6,247.9,354.8,247.9z M350.8,201.1c-2.8,0-5.5,0.5-8.1,1.6c-2.9,1.2-4.6,2.7-5.4,4.5
					c-1.5,3.7,0.9,9.2,3.6,15.5c0.7,1.5,1.3,3,2,4.6c0.7,1.6,1.3,3.2,1.8,4.7c3.2,8.2,5.2,12.9,10,12.9c1.4,0,3-0.4,4.9-1.1
					c11.1-4.6,16.3-17.5,11.6-28.8C367.8,206.5,359.8,201.1,350.8,201.1z"/>
			</g>
			<g>
				<path fill="#807B73" d="M352.5,202.7c0,0,1.1,31.8,9,43.7c0,0-28.7,9.9-33.3-13.2c-1.5-7.6-7.5-31.4,18.3-37.9
					c18.2-4.6,28,11.2,26.4,9.7C365.6,198.6,358.1,209.6,352.5,202.7z"/>
				<path fill="#303E5C" d="M348.4,250c-12,0-19.5-5.7-21.7-16.5l-0.2-0.8c-1.7-8-6.7-32.2,19.6-38.9c2.3-0.6,4.7-0.9,7-0.9
					c13.5,0,21.5,10.3,21.5,12.1c0,0.4-0.2,0.8-0.5,1.1s-0.7,0.5-1.1,0.5c-0.6,0-1-0.4-1.1-0.5c-1.3-1.2-2.7-1.7-4.3-1.7
					c-1.6,0-3.3,0.5-5,1.1c-1.7,0.5-3.5,1.1-5.3,1.1c0,0,0,0,0,0c-1.1,0-2.1-0.2-3-0.6c0.5,8.4,2.5,30.4,8.6,39.6
					c0.3,0.4,0.3,0.9,0.2,1.3c-0.1,0.4-0.5,0.8-0.9,0.9C361.7,247.9,355.6,250,348.4,250z M353,195.9c-2,0-4.1,0.3-6.2,0.8
					c-23.5,6-19.2,26.5-17.4,35.3l0.2,0.9c1.9,9.3,8.2,14.1,18.7,14.1c4.5,0,8.6-0.9,10.9-1.5c-7.1-13-8.2-41.5-8.2-42.7
					c0-0.6,0.4-1.2,1-1.5c0.6-0.2,1.3,0,1.7,0.5c1,1.2,2.1,1.8,3.5,1.8c1.3,0,2.8-0.5,4.4-1c2-0.6,4.1-1.3,6.2-1.2
					C364.7,198.8,359.7,195.9,353,195.9z"/>
			</g>
			<g>
				<g>
					<path fill="#303E5C" d="M366.9,214.9c0-0.1,0-0.2-0.1-0.3c-0.2-0.6-0.6-1-1.2-1.1c-1.5-0.5-3.6,0.6-5.4,1.6
						c-0.6,0.3-1.4,0.7-1.7,0.8c-0.3-0.1-0.7,0.1-0.9,0.4c-0.2,0.4-0.1,0.8,0.3,1c0.6,0.4,1.4,0,3-0.9c0.3-0.2,0.7-0.4,1-0.5
						c-0.1,0.6,0,1.2,0.3,1.8c0.7,1.6,2.3,2.5,3.7,1.9c1.4-0.6,1.9-2.3,1.3-4C367.1,215.4,367,215.1,366.9,214.9z"/>
				</g>
				<g>
					<path fill="#FFF1F1" d="M366.2,216.3c0.2,0.6,0.1,1.2-0.2,1.3c-0.4,0.2-0.9-0.2-1.1-0.8c-0.2-0.6-0.1-1.2,0.2-1.3
						C365.5,215.4,366,215.7,366.2,216.3z"/>
				</g>
			</g>
			<g>
				<path fill="#303E5C" d="M369.2,232.4c-1.2,0.1-2.4-0.2-3.3-0.7c-1.4-0.8-1.8-2.1-1.8-3c0-0.4,0.1-0.7,0.3-0.7
					c0.2,0,0.4,0.3,0.4,0.7c0.1,1.4,2,2.4,4.3,2.3c2.3-0.1,4.1-1.3,4-2.7c0-0.4,0.1-0.7,0.3-0.7c0.2,0,0.4,0.3,0.4,0.7
					C374,231.1,371.4,232.3,369.2,232.4z"/>
			</g>
			<g>
				<path fill="#FFFFFF" d="M405.7,259.3c0.5,1.3-0.4,6.7,5.9,4.2c2.3-0.9,2-5.9,0.8-5.9C411.7,257.6,405.2,258,405.7,259.3z"/>
				<path fill="#303E5C" d="M408.8,265.6L408.8,265.6c-3.9,0-4.3-3.7-4.4-5.1c0-0.3-0.1-0.6-0.1-0.7c-0.2-0.6-0.1-1.2,0.2-1.7
					c1.2-1.7,6.3-1.9,7.9-2c0,0,0,0,0,0c0.5,0,1.9,0.2,2.4,2.5c0.4,2-0.2,5.4-2.6,6.3C410.9,265.4,409.8,265.6,408.8,265.6z
					 M407.3,259.7c0,0.1,0,0.3,0,0.4c0.2,2.1,0.5,2.5,1.5,2.5l0,0c0.6,0,1.4-0.2,2.3-0.5c0.2-0.1,0.4-0.4,0.6-0.8
					c0.3-0.8,0.2-1.7,0.1-2.2C410.4,259.2,408.3,259.4,407.3,259.7z"/>
			</g>
			<g>
				<path fill="#E79037" d="M396.7,381.8c1.5,0,9.3-1,9.3-1s2.2-68.9-12.6-72.6c-12-3.1-66.9,8.4-66.9,8.4s-6.2,20.3,15,21.9
					c30.7,2.3,45.7-10,45.7-10S395.6,381.8,396.7,381.8z"/>
				<path fill="#303E5C" d="M396.7,383.3L396.7,383.3C396.7,383.3,396.7,383.3,396.7,383.3c-1.8,0-2,0-6.7-28
					c-1.7-9.9-3.3-19.9-4-24.3c-4.6,2.9-16.8,9.2-37,9.2c-2.5,0-5.1-0.1-7.7-0.3c-6.7-0.5-11.6-2.9-14.4-7c-4.8-7-2-16.4-1.9-16.8
					c0.2-0.5,0.6-0.9,1.1-1c1.7-0.4,43-8.9,61.3-8.9c2.7,0,4.8,0.2,6.3,0.6c15.4,4,13.9,67,13.7,74.1c0,0.7-0.6,1.3-1.3,1.4
					C405.4,382.4,398.4,383.3,396.7,383.3z M396.7,380.3l0,1.5L396.7,380.3C396.7,380.3,396.7,380.3,396.7,380.3z M387.2,326.9
					c0.2,0,0.4,0,0.5,0.1c0.5,0.2,0.9,0.6,0.9,1.2c2.8,18,7.6,46.7,9,52.1c1.7-0.1,4.8-0.5,6.8-0.8c0.7-26.2-1.8-67.4-11.5-69.9
					c-1.2-0.3-3.1-0.5-5.5-0.5c-16.5,0-53.4,7.4-59.7,8.7c-0.5,2.3-1.5,8.7,1.7,13.4c2.3,3.4,6.4,5.3,12.2,5.7
					c2.5,0.2,5,0.3,7.5,0.3c24.6,0,37-9.9,37.2-10C386.5,327,386.9,326.9,387.2,326.9z"/>
			</g>
			<g>
				<path fill="#FFFFFF" d="M405.3,389.6c0,0,13.9,1.7,14.3-1.6c0.2-1.3-9.5-2.3-13.2-6.7c-0.5-0.6-10,1.9-10,0.1
					c0-1.2-1.1,6.6,0.5,7.8C398.3,390.4,405.3,389.6,405.3,389.6z"/>
				<path fill="#303E5C" d="M412.5,391.6c-3.2,0-6.4-0.3-7.1-0.4c-0.6,0.1-2.5,0.2-4.5,0.2c0,0,0,0,0,0c-3.3,0-4.4-0.5-4.9-1
					c-2.4-1.9-1-9.5-1-9.5c0.2-0.6,0.8-1,1.4-1c0.4,0,0.8,0.2,1.1,0.5c0.1,0.1,0.2,0.2,0.2,0.3c0.1,0,0.3,0,0.4,0
					c1.2,0,3.1-0.3,4.7-0.5c1.4-0.2,2.4-0.4,3.1-0.4c0.3,0,1.1,0,1.6,0.6c2,2.4,6.3,3.7,9.1,4.6c2.9,0.9,4.6,1.5,4.4,3.2
					C420.7,391.2,416.3,391.6,412.5,391.6z M405.3,388.1c0.1,0,0.1,0,0.2,0c0,0,3.5,0.4,6.9,0.4c2.1,0,3.5-0.2,4.4-0.3
					c-0.4-0.1-0.7-0.2-1.1-0.4c-3.2-1-7.5-2.4-10-5.1c-0.6,0-1.5,0.2-2.4,0.3c-1.7,0.3-3.7,0.5-5.1,0.5c-0.2,0-0.4,0-0.5,0
					c-0.1,1.7-0.1,3.8,0.2,4.5c0.2,0.1,0.9,0.3,3,0.3c2.1,0,4.3-0.2,4.3-0.2C405.2,388.1,405.3,388.1,405.3,388.1z"/>
			</g>
			<g>
				<g>
					<path fill="#FFDBD4" d="M387.9,354.2c3.8,20.8-2.1,36.6-52,36.6c-52.3-0.1-54-16.8-51.4-37.8c3-24.2,16.8-42.9,38.4-26.9
						C352.5,347.9,383.7,331.1,387.9,354.2z"/>
					<path fill="#303E5C" d="M336.2,392.3h-0.3c-25.5,0-40.7-3.9-48.1-12.3c-6.6-7.5-6-17.6-4.8-27.2c2.6-20.7,12.3-34.2,24.7-34.2
						c5,0,10.4,2.1,16,6.2c13.7,10.1,28,11.8,39.4,13.1c13.2,1.5,23.7,2.7,26.1,16c2.1,11.5,0.8,19.3-4.1,25.2
						C377.8,388.1,362.2,392.3,336.2,392.3z M307.8,321.7c-13.2,0-19.9,17-21.8,31.5c-1.4,11-1.2,18.9,4.1,24.9
						c6.6,7.5,21.6,11.2,45.8,11.2h0.3c24.7,0,40-3.9,46.8-12c4.3-5.2,5.4-12.2,3.5-22.8c-2-11-10.6-12-23.5-13.5
						c-11.8-1.4-26.5-3.1-40.9-13.7C317,323.5,312.2,321.7,307.8,321.7z"/>
				</g>
				<g>
					<path fill="#303E5C" d="M385.7,349.7c-60.4,0-83.4-25.5-84.4-26.6l2.3-2c0.2,0.3,23.2,25.5,82.1,25.5V349.7z"/>
				</g>
				<g>
					<path fill="#303E5C" d="M388.7,362.1c-34.5-1.2-58.8-10.1-73-17.4c-15.6-7.9-22.8-15.5-23.1-15.9l2.2-2.1
						c0.3,0.3,29.3,30.1,94.1,32.4L388.7,362.1z"/>
				</g>
				<g>
					<path fill="#303E5C" d="M383.8,373.2c-56.2,0-96.4-33.4-96.8-33.7l1.9-2.3c0.4,0.3,41.2,34.2,97.8,33l0.1,3
						C385.8,373.2,384.8,373.2,383.8,373.2z"/>
				</g>
				<g>
					<path fill="#303E5C" d="M378,384.7c-56.8-4.4-93.7-32.7-94.1-33l1.8-2.4c0.4,0.3,36.6,28.1,92.4,32.4L378,384.7z"/>
				</g>
				<g>
					<path fill="#303E5C" d="M349.2,391.5c-43.1-5.4-65.2-24.9-66.1-25.7l2-2.2c0.2,0.2,22.4,19.7,64.5,25L349.2,391.5z"/>
				</g>
			</g>
		</g>
	</g>
</g>
</svg>
